# xmcd
#
# Track frame offsets:
# 150
# 19737
# 36097
# 71722
# 98603
# 116548
# 134561
# 154771
# 176201
# 202204
#
# Disc length: 2944 seconds
#
#
# Revision: 2
# Processed by: cddbd v1.5PL3 Copyright (c) Steve Scherf et al.
# Submitted via: FreeRIP 2.70 
#
DISCID=8e0b7e0a
DTITLE=Ghost Mountain Rhythm and Blues - LIVE at the Downhome
DYEAR=1900
DGENRE=
TTITLE0=Yonders Wall
TTITLE1=Play Something Sweet
TTITLE2=Loan Me A Dime
TTITLE3=Can I Change My Mind
TTITLE4=Tennessee Line
TTITLE5=Talkin' My Language
TTITLE6=Transmitter
TTITLE7=Zydeco Boogaloo
TTITLE8=Well, Well, Well
TTITLE9=If You Love Me Like You Say
EXTD=Recorded live at the DownHome Pickin' Parlor in Johnson City, TNfor WETS-FM's Little Chicago Blues Festival -- April 28, 2001
EXTT0=Junior Wells
EXTT1=Allen Toussaint
EXTT2=Fenton Robinson
EXTT3=B. Despenza - C. Wolfolk
EXTT4=J.P. Delanoye
EXTT5=J.P. Delanoye
EXTT6=J.P. Delanoye
EXTT7=Buckwheat Zydeco
EXTT8=Snooks Eaglin
EXTT9=Albert Collins
PLAYORDER=
